<svg version="1.1" xmlns="http://www.w3.org/2000/svg" xmlns:xlink="http://www.w3.org/1999/xlink"
	 width="20px" viewBox="0 0 256 256">
<path fill="#F8F9FD" stroke="none"
	d="
M257.000000,149.000000 
	C257.000000,184.984589 257.000000,220.969177 257.000000,256.976868 
	C171.718628,256.976868 86.437248,256.976868 1.077932,256.976868 
	C1.077932,171.755219 1.077932,86.510353 1.077932,1.132742 
	C86.333214,1.132742 171.666565,1.132742 256.999969,1.128712 
	C257.000000,49.437351 257.000000,97.750015 256.648254,146.481934 
	C254.001938,145.889084 251.707352,144.876999 248.325409,143.385300 
	C248.818832,147.308105 249.160477,150.024139 249.587097,153.415710 
	C252.610764,151.614563 254.805374,150.307281 257.000000,149.000000 
M214.501083,34.802605 
	C214.326096,34.841045 214.151093,34.879482 213.057938,34.725388 
	C205.710922,34.798714 198.363892,34.872040 190.386154,34.976242 
	C190.212891,35.334442 190.039612,35.692646 189.442825,36.645718 
	C185.468063,51.369968 181.493301,66.094223 176.648376,80.930420 
	C168.199570,80.930420 159.750763,80.930420 151.354446,80.930420 
	C145.151306,105.371155 139.101715,129.206863 132.753662,154.218552 
	C131.835648,151.601654 131.318253,150.218170 130.862747,148.814590 
	C124.031273,127.763618 117.132545,106.733841 110.460068,85.632538 
	C109.399658,82.279037 108.092903,80.728889 104.314034,80.977104 
	C98.673622,81.347588 92.971451,81.359177 87.333000,80.974503 
	C83.536835,80.715515 82.179848,82.271965 81.131920,85.619987 
	C75.813278,102.612473 70.273445,119.535812 64.789841,136.476501 
	C63.032566,141.905289 61.210171,147.313019 59.417564,152.730377 
	C59.115612,152.702820 58.813660,152.675262 58.511707,152.647705 
	C52.333500,128.793274 46.155293,104.938835 40.018810,81.245483 
	C30.663528,81.245483 22.024347,81.245483 12.869240,81.245483 
	C23.303877,119.536011 33.658623,157.533386 44.072021,195.745972 
	C51.728977,195.745972 59.051231,195.561432 66.357025,195.827957 
	C69.741196,195.951416 71.285759,194.998947 72.311043,191.614151 
	C75.589020,180.792511 79.298256,170.101486 83.591652,159.656906 
	C86.437103,158.540726 89.282555,157.424545 92.695518,156.085754 
	C90.149323,152.413147 88.364845,149.839249 86.858444,146.511261 
	C89.611214,138.012024 92.363976,129.512772 95.418251,120.082626 
	C96.233604,122.424538 96.742050,123.797295 97.191559,125.189087 
	C104.379143,147.443970 111.616699,169.683075 118.669960,191.980469 
	C119.576553,194.846497 120.769180,195.941635 123.845909,195.824097 
	C131.307129,195.539062 138.782944,195.635590 146.207489,196.443359 
	C143.835159,205.499649 141.462845,214.555954 138.978653,224.039307 
	C146.509064,224.039307 153.336182,223.795761 160.134491,224.133148 
	C164.042007,224.327087 165.467346,223.000473 166.458389,219.227859 
	C172.120987,197.671860 178.118790,176.203918 184.890335,154.873672 
	C187.592560,154.835526 190.294785,154.797363 193.789490,154.907150 
	C194.857651,154.849808 195.925827,154.792450 197.810852,154.892334 
	C199.615158,154.642517 201.425751,154.431076 203.222824,154.137039 
	C226.018188,150.407440 239.212540,129.925415 232.903625,107.535942 
	C228.730453,92.725929 218.044022,84.872749 203.712219,80.914772 
	C207.606247,66.070992 211.500275,51.227211 215.734650,35.980438 
	C215.489624,35.654858 215.244598,35.329277 214.501083,34.802605 
M205.513519,203.434708 
	C206.307083,200.584854 207.100662,197.735001 208.094681,194.165253 
	C201.669083,194.165253 195.809586,194.165253 189.901031,194.165253 
	C190.939941,184.817810 190.939941,184.817627 199.275803,184.817688 
	C202.440582,184.817703 205.621567,184.620270 208.765427,184.877029 
	C211.711670,185.117661 212.993271,183.993393 213.400986,181.143463 
	C213.717117,178.933731 214.494019,176.789917 215.135544,174.352997 
	C204.182602,174.352997 193.896545,174.352997 183.276260,174.352997 
	C178.984970,190.828186 174.720398,207.200699 170.478668,223.485611 
	C171.198196,223.842361 171.492828,224.114853 171.789337,224.116928 
	C178.784164,224.165482 185.779160,224.197586 192.774155,224.206573 
	C202.380203,224.218903 202.383774,224.210510 204.583710,215.015823 
	C204.645554,214.757309 204.435745,214.433807 204.211288,213.642151 
	C197.955566,213.642151 191.547089,213.642151 185.146973,213.642151 
	C185.283630,204.536774 185.723190,204.091827 193.815811,204.070969 
	C197.476669,204.061539 201.137329,203.978638 205.513519,203.434708 
M6.482265,84.885658 
	C9.725758,85.035789 10.841819,83.508278 11.282908,77.787064 
	C8.519610,78.090393 5.865334,78.381752 2.362580,78.766251 
	C4.077209,81.391518 5.048214,82.878220 6.482265,84.885658 
M26.669552,30.201033 
	C28.214121,30.431768 29.758688,30.662504 31.294233,30.891891 
	C31.690504,28.896547 32.040768,27.132849 32.454475,25.049702 
	C30.470123,24.747490 28.507898,24.448648 26.215847,24.099575 
	C26.121576,26.252018 26.040869,28.094721 26.669552,30.201033 
M252.595795,54.655109 
	C253.358490,53.272087 254.121201,51.889061 254.883896,50.506039 
	C253.917480,50.021404 252.913849,49.102020 251.995651,49.180634 
	C251.162369,49.251980 249.667114,50.611179 249.784241,51.050625 
	C250.118790,52.305733 251.125397,53.381710 252.595795,54.655109 
z"/>
<path fill="#FBD150" opacity="1.000000" stroke="none" 
	d="
M257.000000,148.666656 
	C254.805374,150.307281 252.610764,151.614563 249.587097,153.415710 
	C249.160477,150.024139 248.818832,147.308105 248.325409,143.385300 
	C251.707352,144.876999 254.001938,145.889084 256.648254,146.950592 
	C257.000000,147.444443 257.000000,147.888901 257.000000,148.666656 
z"/>
<path fill="#0957A6" opacity="1.000000" stroke="none" 
	d="
M82.840988,159.360031 
	C79.298256,170.101486 75.589020,180.792511 72.311043,191.614151 
	C71.285759,194.998947 69.741196,195.951416 66.357025,195.827957 
	C59.051231,195.561432 51.728977,195.745972 44.072021,195.745972 
	C33.658623,157.533386 23.303877,119.536011 12.869240,81.245483 
	C22.024347,81.245483 30.663528,81.245483 40.018810,81.245483 
	C46.155293,104.938835 52.333500,128.793274 58.511707,152.647705 
	C58.813660,152.675262 59.115612,152.702820 59.417564,152.730377 
	C61.210171,147.313019 63.032566,141.905289 64.789841,136.476501 
	C70.273445,119.535812 75.813278,102.612473 81.131920,85.619987 
	C82.179848,82.271965 83.536835,80.715515 87.333000,80.974503 
	C92.971451,81.359177 98.673622,81.347588 104.314034,80.977104 
	C108.092903,80.728889 109.399658,82.279037 110.460068,85.632538 
	C117.132545,106.733841 124.031273,127.763618 130.862747,148.814590 
	C131.318253,150.218170 131.835648,151.601654 132.753662,154.218552 
	C139.101715,129.206863 145.151306,105.371155 151.354446,80.930420 
	C159.750763,80.930420 168.199570,80.930420 177.581100,80.977783 
	C186.833679,81.236366 195.153519,81.447578 203.473373,81.658791 
	C218.044022,84.872749 228.730453,92.725929 232.903625,107.535942 
	C239.212540,129.925415 226.018188,150.407440 203.222824,154.137039 
	C201.425751,154.431076 199.615158,154.642517 197.403778,154.366486 
	C197.316483,149.233475 197.864624,144.626266 197.863724,140.019180 
	C197.863235,137.562378 196.914001,135.105774 196.707520,132.446518 
	C204.875748,129.661072 208.724548,124.952911 208.660782,118.006538 
	C208.595551,110.899414 204.821091,106.224213 197.036560,103.987450 
	C190.999191,103.638420 185.387024,103.323357 179.771957,103.258018 
	C171.094635,103.157036 171.093796,103.229446 169.100006,112.322754 
	C161.399216,140.322968 153.826050,167.950668 146.252869,195.578369 
	C138.782944,195.635590 131.307129,195.539062 123.845909,195.824097 
	C120.769180,195.941635 119.576553,194.846497 118.669960,191.980469 
	C111.616699,169.683075 104.379143,147.443970 97.191559,125.189087 
	C96.742050,123.797295 96.233604,122.424538 95.418251,120.082626 
	C92.363976,129.512772 89.611214,138.012024 86.515625,147.134796 
	C85.062202,151.625580 83.951591,155.492798 82.840988,159.360031 
z"/>
<path fill="#F58223" opacity="1.000000" stroke="none" 
	d="
M146.230194,196.010864 
	C153.826050,167.950668 161.399216,140.322968 169.551361,112.319756 
	C178.393921,111.906921 186.657532,111.869598 194.959854,112.233078 
	C193.291702,119.405487 191.584808,126.177094 189.752655,133.297729 
	C187.752487,140.666519 185.877609,147.686295 184.002731,154.706055 
	C178.118790,176.203918 172.120987,197.671860 166.458389,219.227859 
	C165.467346,223.000473 164.042007,224.327087 160.134491,224.133148 
	C153.336182,223.795761 146.509064,224.039307 138.978653,224.039307 
	C141.462845,214.555954 143.835159,205.499649 146.230194,196.010864 
z"/>
<path fill="#0D59A7" opacity="1.000000" stroke="none" 
	d="
M205.155792,203.681900 
	C201.137329,203.978638 197.476669,204.061539 193.815811,204.070969 
	C185.723190,204.091827 185.283630,204.536774 185.146973,213.642151 
	C191.547089,213.642151 197.955566,213.642151 204.211288,213.642151 
	C204.435745,214.433807 204.645554,214.757309 204.583710,215.015823 
	C202.383774,224.210510 202.380203,224.218903 192.774155,224.206573 
	C185.779160,224.197586 178.784164,224.165482 171.789337,224.116928 
	C171.492828,224.114853 171.198196,223.842361 170.478668,223.485611 
	C174.720398,207.200699 178.984970,190.828186 183.276260,174.352997 
	C193.896545,174.352997 204.182602,174.352997 215.135544,174.352997 
	C214.494019,176.789917 213.717117,178.933731 213.400986,181.143463 
	C212.993271,183.993393 211.711670,185.117661 208.765427,184.877029 
	C205.621567,184.620270 202.440582,184.817703 199.275803,184.817688 
	C190.939941,184.817627 190.939941,184.817810 189.901031,194.165253 
	C195.809586,194.165253 201.669083,194.165253 208.094681,194.165253 
	C207.100662,197.735001 206.307083,200.584854 205.155792,203.681900 
z"/>
<path fill="#F58323" opacity="1.000000" stroke="none" 
	d="
M203.592804,81.286781 
	C195.153519,81.447578 186.833679,81.236366 178.016174,80.921814 
	C181.493301,66.094223 185.468063,51.369968 189.901367,36.226223 
	C190.578903,35.519608 190.797897,35.232487 191.016876,34.945362 
	C198.363892,34.872040 205.710922,34.798714 213.615112,35.042305 
	C214.345673,35.653297 214.599045,35.836956 215.045532,36.030807 
	C215.158646,36.151417 215.394287,36.383427 215.394287,36.383430 
	C211.500275,51.227211 207.606247,66.070992 203.592804,81.286781 
z"/>
<path fill="#214E8C" opacity="1.000000" stroke="none" 
	d="
M184.446533,154.789856 
	C185.877609,147.686295 187.752487,140.666519 190.140610,133.228943 
	C191.430328,132.865845 192.206787,132.920563 192.985916,133.411072 
	C192.991379,140.817642 192.994202,147.788437 192.997009,154.759216 
	C190.294785,154.797363 187.592560,154.835526 184.446533,154.789856 
z"/>
<path fill="#0F4C94" opacity="1.000000" stroke="none" 
	d="
M193.393250,154.833191 
	C192.994202,147.788437 192.991379,140.817642 193.317932,133.308777 
	C194.562531,132.730133 195.477753,132.689606 196.392975,132.649078 
	C196.914001,135.105774 197.863235,137.562378 197.863724,140.019180 
	C197.864624,144.626266 197.316483,149.233475 196.995331,154.287872 
	C195.925827,154.792450 194.857651,154.849808 193.393250,154.833191 
z"/>
<path fill="#46D4BF" opacity="1.000000" stroke="none" 
	d="
M83.216316,159.508469 
	C83.951591,155.492798 85.062202,151.625580 86.376595,147.511841 
	C88.364845,149.839249 90.149323,152.413147 92.695518,156.085754 
	C89.282555,157.424545 86.437103,158.540726 83.216316,159.508469 
z"/>
<path fill="#74A4FC" opacity="1.000000" stroke="none" 
	d="
M6.250742,84.625290 
	C5.048214,82.878220 4.077209,81.391518 2.362580,78.766251 
	C5.865334,78.381752 8.519610,78.090393 11.282908,77.787064 
	C10.841819,83.508278 9.725758,85.035789 6.250742,84.625290 
z"/>
<path fill="#FAD35A" opacity="1.000000" stroke="none" 
	d="
M26.314857,30.069227 
	C26.040869,28.094721 26.121576,26.252018 26.215847,24.099575 
	C28.507898,24.448648 30.470123,24.747490 32.454475,25.049702 
	C32.040768,27.132849 31.690504,28.896547 31.294233,30.891891 
	C29.758688,30.662504 28.214121,30.431768 26.314857,30.069227 
z"/>
<path fill="#55D7C0" opacity="1.000000" stroke="none" 
	d="
M252.231720,54.591629 
	C251.125397,53.381710 250.118790,52.305733 249.784241,51.050625 
	C249.667114,50.611179 251.162369,49.251980 251.995651,49.180634 
	C252.913849,49.102020 253.917480,50.021404 254.883896,50.506039 
	C254.121201,51.889061 253.358490,53.272087 252.231720,54.591629 
z"/>
<path fill="#F58323" opacity="1.000000" stroke="none" 
	d="
M214.999573,35.003693 
	C215.244598,35.329277 215.489624,35.654858 215.564468,36.181931 
	C215.394287,36.383427 215.158646,36.151417 215.066895,35.804993 
	C214.975159,35.458572 214.999573,35.003693 214.999573,35.003693 
z"/>
<path fill="#F4790F" opacity="1.000000" stroke="none" 
	d="
M214.750336,34.903149 
	C214.999573,35.003693 214.975159,35.458572 214.953796,35.684383 
	C214.599045,35.836956 214.345673,35.653297 214.074188,35.138573 
	C214.151093,34.879482 214.326096,34.841045 214.750336,34.903149 
z"/>
<path fill="#F4790F" opacity="1.000000" stroke="none" 
	d="
M190.701508,34.960800 
	C190.797897,35.232487 190.578903,35.519608 190.113129,35.928787 
	C190.039612,35.692646 190.212891,35.334442 190.701508,34.960800 
z"/>
<path fill="#F3F5F9" opacity="1.000000" stroke="none" 
	d="
M196.707535,132.446518 
	C195.477753,132.689606 194.562531,132.730133 193.315277,132.872971 
	C192.206787,132.920563 191.430328,132.865845 190.265900,132.879913 
	C191.584808,126.177094 193.291702,119.405487 195.143494,111.925964 
	C196.012421,108.856476 196.736435,106.494896 197.460449,104.133316 
	C204.821091,106.224213 208.595551,110.899414 208.660782,118.006538 
	C208.724548,124.952911 204.875748,129.661072 196.707535,132.446518 
z"/>
<path fill="#AF622E" opacity="1.000000" stroke="none" 
	d="
M197.036560,103.987450 
	C196.736435,106.494896 196.012421,108.856476 195.104767,111.525162 
	C186.657532,111.869598 178.393921,111.906921 169.678986,111.947250 
	C171.093796,103.229446 171.094635,103.157036 179.771957,103.258018 
	C185.387024,103.323357 190.999191,103.638420 197.036560,103.987450 
z"/>
</svg>
